<?xml version="1.0" encoding="UTF-8" standalone="no"?>
<!DOCTYPE svg PUBLIC "-//W3C//DTD SVG 1.1//EN" "http://www.w3.org/Graphics/SVG/1.1/DTD/svg11.dtd">
<svg width="100%" height="100%" viewBox="0 0 2401 2834" version="1.1" xmlns="http://www.w3.org/2000/svg" xmlns:xlink="http://www.w3.org/1999/xlink" xml:space="preserve" xmlns:serif="http://www.serif.com/" style="fill-rule:evenodd;clip-rule:evenodd;stroke-linecap:square;stroke-linejoin:round;stroke-miterlimit:1.5;">
    <g transform="matrix(1,0,0,1,-3613.64,-700.201)">
        <g id="Short" transform="matrix(1,0,0,1,0,-1365.79)">
            <g transform="matrix(1,0,0,1,-1782.48,-5893.11)">
                <circle cx="6112.17" cy="9375.73" r="681.277" style="fill:none;stroke:black;stroke-width:69.55px;"/>
            </g>
            <g transform="matrix(0.832536,0,0,0.779522,-224.959,-3339.64)">
                <path d="M5470.81,8206.03L5470.81,8498.1" style="fill:none;stroke:black;stroke-width:86.24px;"/>
            </g>
            <g transform="matrix(-1.52934e-16,0.779522,-0.832536,-1.43196e-16,11283.1,-1093.64)">
                <path d="M5470.81,8206.03L5470.81,8498.1" style="fill:none;stroke:black;stroke-width:86.24px;"/>
            </g>
            <g transform="matrix(-1.52934e-16,1,-0.832536,-1.83697e-16,11283.1,-1616.4)">
                <path d="M5470.81,8206.03L5470.81,8498.1" style="fill:none;stroke:black;stroke-width:75.59px;"/>
            </g>
            <g transform="matrix(0.810776,0,0,0.776248,-105.915,-3388.36)">
                <path d="M5470.81,7973.87L5470.81,7107.31L7471.02,7107.31" style="fill:none;stroke:black;stroke-width:87.62px;stroke-linejoin:miter;"/>
            </g>
            <g transform="matrix(0.810776,2.21715e-17,-2.7346e-17,-0.776703,-105.915,10357.2)">
                <path d="M5470.81,7973.87L5470.81,7107.31L7471.02,7107.31" style="fill:none;stroke:black;stroke-width:87.6px;stroke-linejoin:miter;"/>
            </g>
            <g transform="matrix(0.810776,0,0,0.874732,-105.915,-4088.32)">
                <path d="M7471.02,7107.31L7471.02,10203" style="fill:none;stroke:black;stroke-width:82.46px;stroke-linejoin:miter;"/>
            </g>
        </g>
    </g>
</svg>
